PathFileType	4	(X/Y/Z)	./resultDataOpenSim/trcMotMarkerGrf/sub10/qtm-03-07.trc
DataRate	CameraRate	NumFrames	NumMarkers	Units	OrigDataRate	OrigDataStartFrame	OrigNumFrames
250.000000	250.000000	9	24	m	250.000000	453	517
Frame#	Time	L.Toe.Tip			R.Toe.Tip			L.Ankle.Lat			R.Ankle.Lat			L.Ankle.Med			R.Ankle.Med			L.Heel			R.Heel			L.Knee.Lat			R.Knee.Lat			L.Knee.Med			R.Knee.Med			L.Thigh.Upper			R.Thigh.Upper			L.ASIS			R.ASIS			V.Sacral			L.Acromium			R.Acromium			C7			L.Elbow			R.Elbow			L.Wrist.Lat			R.Wrist.Lat
		X1	Y1	Z1	X2	Y2	Z2	X3	Y3	Z3	X4	Y4	Z4	X5	Y5	Z5	X6	Y6	Z6	X7	Y7	Z7	X8	Y8	Z8	X9	Y9	Z9	X10	Y10	Z10	X11	Y11	Z11	X12	Y12	Z12	X13	Y13	Z13	X14	Y14	Z14	X15	Y15	Z15	X16	Y16	Z16	X17	Y17	Z17	X18	Y18	Z18	X19	Y19	Z19	X20	Y20	Z20	X21	Y21	Z21	X22	Y22	Z22	X23	Y23	Z23	X24	Y24	Z24

453	1.808	1.5797393	0.11790083	-0.1403066	0.85316693	0.038070429	0.067416944	1.4507102	0.080939804	-0.16765999	0.72057692	0.082057766	0.10112609	1.4545836	0.10770104	-0.088820388	0.74739571	0.099109263	0.01624372	1.4088977	0.025736303	-0.1229785	0.66430225	0.070076633	0.054931981	1.3029136	0.44690923	-0.17840917	0.93527882	0.42522786	0.1229316	1.3202182	0.41941235	-0.060532563	0.9625325	0.4178262	-0.0018746996	1.1545379	0.79883913	-0.21466362	1.0336924	0.82451404	0.15936076	1.1858109	0.90948692	-0.13365746	1.129844	0.91036633	0.11122874	0.93194465	0.91391105	-0.047691895	1.072272	1.3736948	-0.18582267	1.0621724	1.3780853	0.13651373	0.98324464	1.3978216	-0.031219792	0.92261507	1.0768404	-0.26788431	1.0983976	1.0347055	0.24963971	0.96012447	0.84568948	-0.31675351	1.3406501	0.97285303	0.26345032
454	1.812	1.5833676	0.11465999	-0.14105723	0.85347041	0.038136571	0.067463036	1.4540968	0.079074568	-0.16778364	0.72201225	0.084145257	0.10155779	1.4588876	0.10523509	-0.088569677	0.74867278	0.10076229	0.016669278	1.411865	0.024183229	-0.12298608	0.66531211	0.07295688	0.055493064	1.3103515	0.44672273	-0.17885672	0.94021384	0.42474917	0.12251776	1.3281212	0.41970786	-0.061025329	0.9677368	0.41697831	-0.0021248488	1.1610133	0.7985171	-0.21546607	1.0395549	0.82368955	0.15845041	1.1923858	0.90856803	-0.13409651	1.1361001	0.90918949	0.11082638	0.9377446	0.91306173	-0.048466761	1.0779506	1.3728639	-0.18690308	1.0678829	1.3772478	0.13539434	0.98889868	1.3968123	-0.032322782	0.92856843	1.0759594	-0.26860309	1.1047085	1.0338856	0.24808644	0.96545653	0.84495198	-0.31853183	1.3471603	0.97288771	0.26146655
455	1.816	1.5867745	0.11127158	-0.14180889	0.85382211	0.038209051	0.067503929	1.4570621	0.077088525	-0.16780629	0.72346408	0.086376575	0.10206367	1.4624377	0.10262231	-0.088387269	0.7500658	0.10251458	0.017115949	1.4142198	0.022753668	-0.12292514	0.66644167	0.075982963	0.056053124	1.3177466	0.4465101	-0.17934173	0.94526104	0.42432216	0.1221535	1.3361335	0.42005252	-0.061541929	0.97308032	0.41616711	-0.0023506134	1.1674229	0.7982742	-0.21631224	1.0455269	0.82293009	0.157517	1.1990104	0.90771681	-0.13459223	1.1424511	0.90805851	0.11038582	0.94356455	0.91229101	-0.049216913	1.0836644	1.372074	-0.18799508	1.07365	1.3764716	0.13422922	0.99458865	1.395841	-0.033433965	0.93455981	1.0751045	-0.26936546	1.11087	1.0330309	0.24647288	0.97092269	0.84423979	-0.32029647	1.3535871	0.9729072	0.25946461
456	1.82	1.5900103	0.10777764	-0.14258704	0.85421116	0.038272748	0.067557563	1.4596609	0.075012358	-0.16776225	0.72489092	0.088743067	0.10264585	1.4655001	0.10004418	-0.088237663	0.75158369	0.10436254	0.017575275	1.4159281	0.021613783	-0.12279259	0.66769401	0.079148323	0.056619405	1.3250836	0.44626101	-0.17986497	0.95042675	0.42393816	0.12181899	1.3442277	0.42043169	-0.062090182	0.97854278	0.41538586	-0.0025717429	1.1737834	0.79808201	-0.21720156	1.0516	0.82220948	0.15655775	1.205682	0.90693978	-0.13515175	1.1489066	0.90698013	0.1098916	0.94946597	0.91158472	-0.049957913	1.0894021	1.3713276	-0.18910561	1.0794493	1.3757508	0.13302489	1.0003151	1.3949022	-0.034546461	0.94057863	1.0742773	-0.2701833	1.1168469	1.0321212	0.2448035	0.9765289	0.84354687	-0.32204641	1.3599316	0.97290653	0.25745375
457	1.824	1.5929608	0.10407278	-0.14345736	0.85461686	0.038315262	0.067627814	1.4619846	0.072903789	-0.16773379	0.72633834	0.0912147	0.10327339	1.468267	0.097589785	-0.088069181	0.75323778	0.10629846	0.018042333	1.4170694	0.020834985	-0.12256073	0.66907575	0.082444371	0.057197039	1.3323547	0.44596216	-0.18043311	0.95572567	0.42358663	0.12148908	1.3523441	0.42083241	-0.062675273	0.98411935	0.41462941	-0.0028117063	1.1801134	0.7979204	-0.2181364	1.0577798	0.82149856	0.15557116	1.2123993	0.90624302	-0.13577689	1.1554797	0.90595254	0.10934072	0.95558839	0.91091352	-0.050756823	1.0951463	1.3706259	-0.19024386	1.0852587	1.3750823	0.13178818	1.0060737	1.3939888	-0.035663529	0.94664844	1.0734857	-0.27099762	1.1226687	1.0311817	0.24309495	0.98228274	0.84286674	-0.32378456	1.3661859	0.97288136	0.2554331
458	1.828	1.5955258	0.099920801	-0.1445432	0.85502075	0.038332321	0.067698205	1.4641518	0.070879542	-0.16781226	0.72793182	0.09375515	0.10389039	1.4709023	0.095327221	-0.087855245	0.75503942	0.10831411	0.018515307	1.4178422	0.020411618	-0.12220124	0.67060647	0.085864978	0.057754027	1.3395496	0.4456055	-0.1810493	0.96116234	0.42325895	0.12114734	1.3604248	0.42123767	-0.063303264	0.98981825	0.41389152	-0.0030863863	1.186431	0.79777463	-0.2191241	1.0641113	0.82078734	0.15456335	1.2191501	0.90563248	-0.13646314	1.1621778	0.90497131	0.10874051	0.96204011	0.91025846	-0.051676255	1.1008904	1.3699644	-0.19141581	1.0910814	1.3744622	0.13052032	1.0118529	1.3930958	-0.036800663	0.9528229	1.0727447	-0.27169365	1.1284141	1.0302735	0.24137112	0.988187	0.842195	-0.32551563	1.3723461	0.97282681	0.25339359
459	1.832	1.5979413	0.09510624	-0.14583079	0.8554226	0.038329488	0.06774937	1.4662732	0.069124235	-0.16799458	0.72975625	0.096342389	0.10445013	1.4735859	0.093370765	-0.08760574	0.75699769	0.11040155	0.018994014	1.4184903	0.020400513	-0.12173824	0.672308	0.089407053	0.058250439	1.346649	0.4451941	-0.18170934	0.96673542	0.42295173	0.1207901	1.3684282	0.42161992	-0.06398332	0.99564501	0.41316564	-0.0033952495	1.1927521	0.79763201	-0.22017429	1.0706581	0.82008309	0.15354314	1.2259031	0.90511571	-0.13719562	1.169	0.9040355	0.10809374	0.96879708	0.90963644	-0.052717791	1.1066403	1.3693359	-0.19262561	1.0969389	1.3738838	0.12922449	1.0176404	1.3922271	-0.037972146	0.95914337	1.0720622	-0.27221418	1.1341322	1.0294346	0.23964362	0.99424389	0.84152965	-0.32724454	1.3784162	0.97273679	0.25133036
460	1.836	1.6007513	0.089590046	-0.14699668	0.85584535	0.038319497	0.067775222	1.4684612	0.067827323	-0.16816553	0.73180338	0.098969768	0.10493757	1.4764816	0.091860364	-0.087350282	0.7591206	0.11255323	0.019478556	1.4192269	0.020934339	-0.12127636	0.67419059	0.093069214	0.058688909	1.3536312	0.44475199	-0.18240829	0.97245183	0.42266647	0.12041516	1.3763261	0.4219512	-0.06472153	1.0015955	0.41244498	-0.00372902	1.1990882	0.79748691	-0.22129424	1.0774314	0.81938202	0.15251041	1.2326166	0.90470432	-0.13796452	1.1759386	0.90314567	0.10738872	0.97571202	0.90908753	-0.053820581	1.112402	1.3687381	-0.19387715	1.1028435	1.3733416	0.12791127	1.0234292	1.3913971	-0.039178942	0.96557669	1.0714066	-0.27268727	1.1398169	1.0286542	0.23790644	1.0004532	0.84086977	-0.32897308	1.3843969	0.97260965	0.24925259
461	1.84	1.6043362	0.083604964	-0.14763128	0.85631685	0.038311254	0.067784638	1.4708656	0.067061647	-0.16823149	0.73402439	0.10164084	0.10536806	1.4796667	0.090866039	-0.08711918	0.76141742	0.11476403	0.019971285	1.4201807	0.022035439	-0.12094613	0.6762547	0.096853791	0.059115808	1.3604945	0.44433645	-0.18314138	0.97832281	0.42240662	0.12001503	1.3841066	0.42222508	-0.065508178	1.0076648	0.41171961	-0.0040874709	1.2054484	0.79735025	-0.22248454	1.0843724	0.8186599	0.15145955	1.2392567	0.90441028	-0.1387878	1.1829851	0.9023015	0.10660794	0.98262325	0.90864329	-0.054910743	1.1181752	1.3681786	-0.19517301	1.1087925	1.3728387	0.12659255	1.0292146	1.3906216	-0.040415794	0.97201358	1.0707093	-0.27337066	1.145446	1.0279068	0.23615027	1.0068032	0.84021312	-0.33069379	1.3902741	0.97245078	0.24717928
